# xmcd CD database file
#
# Track frame offsets:
#	150
#	29549
#	54178
#	79449
#	95115
#	120362
#	148761
#
# Disc length: 2379 seconds
#
# Revision: 0
# Processed by: cddbd v1.4PL0 Copyright (c) Steve Scherf et al.
# Submitted via: CDex 1.50
#
DISCID=5c094907
DTITLE=Sylvia Brallier - Awakening The Sacred Fire
DYEAR=2000
DGENRE=New Age
TTITLE0=Where the Heart Leads
TTITLE1=Mystery of the Tides
TTITLE2=Eros and Aphrodite
TTITLE3=Midnight
TTITLE4=I Don't See You
TTITLE5=In the Snow
TTITLE6=Serene
EXTD=YEAR: 2000
EXTT0=
EXTT1=
EXTT2=
EXTT3=
EXTT4=
EXTT5=
EXTT6=
PLAYORDER=
